<svg xmlns="http://www.w3.org/2000/svg" id="svg" version="1.2" baseProfile="tiny" style="min-height: 0px; min-width: 0px;"><desc>Created with Snap</desc><defs></defs><g transform="matrix(0.07551256623859232, 0, 0, 0.07551256623859232, 0, 29.169287319787948)"><g transform="matrix(1, 0, 0, 1, 1476.5677664727639, 324.7278231872311)" style="visibility: visible;"></g><g transform="matrix(1, 0, 0, 1, 695, 451)" style="visibility: visible;"><g transform="matrix(1, 0, 0, 1, -124, -257.5)" style="visibility: visible;"><g transform="matrix(1, 0, 0, 1, -128, -123)" style="visibility: visible;"></g><path d="M-1.2000000000000455,32 C-25.936000000000014,32 -38.303999999999995,-91.60000000000002 -63.039999999999964,-91.60000000000002 L-128,-91.60000000000002" fill="none" stroke="#ca522a" style="stroke-width: 4.8; stroke-linecap: round; opacity: 1;"></path><g transform="matrix(1, 0, 0, 1, -182, -82)" style="visibility: visible;"></g><path d="M-1.2000000000000455,32 C-25.936000000000014,32 -38.303999999999995,-50.60000000000002 -63.039999999999964,-50.60000000000002 L-182,-50.60000000000002" fill="none" stroke="#ca522a" style="stroke-width: 4.8; stroke-linecap: round; opacity: 1;"></path><g transform="matrix(1, 0, 0, 1, -164, -20.5)" style="visibility: visible;"><g transform="matrix(1, 0, 0, 1, -166, -20.5)" style="visibility: visible;"></g><path d="M-0.9600000000000364,31.399999999999977 C-25.86880000000001,31.399999999999977 -38.3232,10.420000000000016 -63.23199999999997,10.420000000000016 L-166,10.420000000000016" fill="none" stroke="#ca522a" style="stroke-width: 3.84; stroke-linecap: round; opacity: 1;"></path><g transform="matrix(1, 0, 0, 1, -200, 20.5)" style="visibility: visible;"></g><path d="M-0.9600000000000364,31.399999999999977 C-25.86880000000001,31.399999999999977 -38.3232,51.420000000000016 -63.23199999999997,51.420000000000016 L-200,51.420000000000016" fill="none" stroke="#ca522a" style="stroke-width: 3.84; stroke-linecap: round; opacity: 1;"></path></g><path d="M-1.2000000000000455,32 C-25.936000000000014,32 -38.303999999999995,10.899999999999977 -63.039999999999964,10.899999999999977 L-164,10.899999999999977" fill="none" stroke="#ca522a" style="stroke-width: 4.8; stroke-linecap: round; opacity: 1;"></path><g transform="matrix(1, 0, 0, 1, -128, 82)" style="visibility: visible;"><g transform="matrix(1, 0, 0, 1, -128, -41)" style="visibility: visible;"></g><path d="M-0.9600000000000364,31.399999999999977 C-25.86880000000001,31.399999999999977 -38.3232,-10.079999999999984 -63.23199999999997,-10.079999999999984 L-128,-10.079999999999984" fill="none" stroke="#ca522a" style="stroke-width: 3.84; stroke-linecap: round; opacity: 1;"></path><g transform="matrix(1, 0, 0, 1, -128, 0)" style="visibility: visible;"></g><path d="M-0.9600000000000364,31.399999999999977 C-25.86880000000001,31.399999999999977 -38.3232,30.920000000000016 -63.23199999999997,30.920000000000016 L-128,30.920000000000016" fill="none" stroke="#ca522a" style="stroke-width: 3.84; stroke-linecap: round; opacity: 1;"></path><g transform="matrix(1, 0, 0, 1, -164, 41)" style="visibility: visible;"></g><path d="M-0.9600000000000364,31.399999999999977 C-25.86880000000001,31.399999999999977 -38.3232,71.91999999999996 -63.23199999999997,71.91999999999996 L-164,71.91999999999996" fill="none" stroke="#ca522a" style="stroke-width: 3.84; stroke-linecap: round; opacity: 1;"></path></g><path d="M-1.2000000000000455,32 C-25.936000000000014,32 -38.303999999999995,113.39999999999998 -63.039999999999964,113.39999999999998 L-128,113.39999999999998" fill="none" stroke="#ca522a" style="stroke-width: 4.8; stroke-linecap: round; opacity: 1;"></path></g><path d="M54.5,23.5 C7.5800000000000125,23.5 -15.879999999999967,-225.5 -62.799999999999955,-225.5 L-124,-225.5" fill="none" stroke="#ca522a" style="stroke-width: 6; stroke-linecap: round; opacity: 1;"></path><g transform="matrix(1, 0, 0, 1, -128, 152.5)" style="visibility: visible;"><g transform="matrix(1, 0, 0, 1, -164, -184.5)" style="visibility: visible;"><g transform="matrix(1, 0, 0, 1, -182, -61.5)" style="visibility: visible;"></g><path d="M-0.9600000000000364,31.399999999999977 C-25.86880000000001,31.399999999999977 -38.3232,-30.58000000000004 -63.23199999999997,-30.58000000000004 L-182,-30.58000000000004" fill="none" stroke="#2e8ccf" style="stroke-width: 3.84; stroke-linecap: round; opacity: 1;"></path><g transform="matrix(1, 0, 0, 1, -254, -20.5)" style="visibility: visible;"></g><path d="M-0.9600000000000364,31.399999999999977 C-25.86880000000001,31.399999999999977 -38.3232,10.419999999999959 -63.23199999999997,10.419999999999959 L-254,10.419999999999959" fill="none" stroke="#2e8ccf" style="stroke-width: 3.84; stroke-linecap: round; opacity: 1;"></path><g transform="matrix(1, 0, 0, 1, -254, 20.5)" style="visibility: visible;"></g><path d="M-0.9600000000000364,31.399999999999977 C-25.86880000000001,31.399999999999977 -38.3232,51.41999999999996 -63.23199999999997,51.41999999999996 L-254,51.41999999999996" fill="none" stroke="#2e8ccf" style="stroke-width: 3.84; stroke-linecap: round; opacity: 1;"></path><g transform="matrix(1, 0, 0, 1, -236, 61.5)" style="visibility: visible;"></g><path d="M-0.9600000000000364,31.399999999999977 C-25.86880000000001,31.399999999999977 -38.3232,92.41999999999996 -63.23199999999997,92.41999999999996 L-236,92.41999999999996" fill="none" stroke="#2e8ccf" style="stroke-width: 3.84; stroke-linecap: round; opacity: 1;"></path></g><path d="M-1.2000000000000455,32 C-25.936000000000014,32 -38.303999999999995,-153.10000000000002 -63.039999999999964,-153.10000000000002 L-164,-153.10000000000002" fill="none" stroke="#2e8ccf" style="stroke-width: 4.8; stroke-linecap: round; opacity: 1;"></path><g transform="matrix(1, 0, 0, 1, -146, -61.5)" style="visibility: visible;"><g transform="matrix(1, 0, 0, 1, -164, -20.5)" style="visibility: visible;"></g><path d="M-0.9600000000000364,31.399999999999977 C-25.86880000000001,31.399999999999977 -38.3232,10.419999999999959 -63.23199999999997,10.419999999999959 L-164,10.419999999999959" fill="none" stroke="#2e8ccf" style="stroke-width: 3.84; stroke-linecap: round; opacity: 1;"></path><g transform="matrix(1, 0, 0, 1, -200, 20.5)" style="visibility: visible;"></g><path d="M-0.9600000000000364,31.399999999999977 C-25.86880000000001,31.399999999999977 -38.3232,51.41999999999996 -63.23199999999997,51.41999999999996 L-200,51.41999999999996" fill="none" stroke="#2e8ccf" style="stroke-width: 3.84; stroke-linecap: round; opacity: 1;"></path></g><path d="M-1.2000000000000455,32 C-25.936000000000014,32 -38.303999999999995,-30.100000000000023 -63.039999999999964,-30.100000000000023 L-146,-30.100000000000023" fill="none" stroke="#2e8ccf" style="stroke-width: 4.8; stroke-linecap: round; opacity: 1;"></path><g transform="matrix(1, 0, 0, 1, -164, 61.5)" style="visibility: visible;"><g transform="matrix(1, 0, 0, 1, -236, -61.5)" style="visibility: visible;"></g><path d="M-0.9600000000000364,31.399999999999977 C-25.86880000000001,31.399999999999977 -38.3232,-30.58000000000004 -63.23199999999997,-30.58000000000004 L-236,-30.58000000000004" fill="none" stroke="#2e8ccf" style="stroke-width: 3.84; stroke-linecap: round; opacity: 1;"></path><g transform="matrix(1, 0, 0, 1, -353, -20.5)" style="visibility: visible;"></g><path d="M-0.9600000000000364,31.399999999999977 C-25.86880000000001,31.399999999999977 -38.3232,10.419999999999959 -63.23199999999997,10.419999999999959 L-353,10.419999999999959" fill="none" stroke="#2e8ccf" style="stroke-width: 3.84; stroke-linecap: round; opacity: 1;"></path><g transform="matrix(1, 0, 0, 1, -301, 20.5)" style="visibility: visible;"></g><path d="M-0.9600000000000364,31.399999999999977 C-25.86880000000001,31.399999999999977 -38.3232,51.41999999999996 -63.23199999999997,51.41999999999996 L-301,51.41999999999996" fill="none" stroke="#2e8ccf" style="stroke-width: 3.84; stroke-linecap: round; opacity: 1;"></path><g transform="matrix(1, 0, 0, 1, -322, 61.5)" style="visibility: visible;"></g><path d="M-0.9600000000000364,31.399999999999977 C-25.86880000000001,31.399999999999977 -38.3232,92.41999999999996 -63.23199999999997,92.41999999999996 L-322,92.41999999999996" fill="none" stroke="#2e8ccf" style="stroke-width: 3.84; stroke-linecap: round; opacity: 1;"></path></g><path d="M-1.2000000000000455,32 C-25.936000000000014,32 -38.303999999999995,92.89999999999998 -63.039999999999964,92.89999999999998 L-164,92.89999999999998" fill="none" stroke="#2e8ccf" style="stroke-width: 4.8; stroke-linecap: round; opacity: 1;"></path><g transform="matrix(1, 0, 0, 1, -164, 184.5)" style="visibility: visible;"><g transform="matrix(1, 0, 0, 1, -272, -20.5)" style="visibility: visible;"></g><path d="M-0.9600000000000364,31.399999999999977 C-25.86880000000001,31.399999999999977 -38.3232,10.419999999999959 -63.23199999999997,10.419999999999959 L-272,10.419999999999959" fill="none" stroke="#2e8ccf" style="stroke-width: 3.84; stroke-linecap: round; opacity: 1;"></path><g transform="matrix(1, 0, 0, 1, -151, 20.5)" style="visibility: visible;"></g><path d="M-0.9600000000000364,31.399999999999977 C-25.86880000000001,31.399999999999977 -38.3232,51.41999999999996 -63.23199999999997,51.41999999999996 L-151,51.41999999999996" fill="none" stroke="#2e8ccf" style="stroke-width: 3.84; stroke-linecap: round; opacity: 1;"></path></g><path d="M-1.2000000000000455,32 C-25.936000000000014,32 -38.303999999999995,215.89999999999998 -63.039999999999964,215.89999999999998 L-164,215.89999999999998" fill="none" stroke="#2e8ccf" style="stroke-width: 4.8; stroke-linecap: round; opacity: 1;"></path><g transform="matrix(1, 0, 0, 1, -146, 245.9999999999999)" style="visibility: visible;"><g transform="matrix(1, 0, 0, 1, -164, 0)" style="visibility: visible;"></g><path d="M-0.9600000000000364,31.40000000000009 C-25.86880000000001,31.40000000000009 -38.3232,30.920000000000073 -63.23199999999997,30.920000000000073 L-164,30.920000000000073" fill="none" stroke="#2e8ccf" style="stroke-width: 3.84; stroke-linecap: round; opacity: 1;"></path></g><path d="M-1.2000000000000455,32 C-25.936000000000014,32 -38.303999999999995,277.4 -63.039999999999964,277.4 L-146,277.4" fill="none" stroke="#2e8ccf" style="stroke-width: 4.8; stroke-linecap: round; opacity: 1;"></path></g><path d="M54.5,23.5 C7.5800000000000125,23.5 -15.879999999999967,184.5 -62.799999999999955,184.5 L-128,184.5" fill="none" stroke="#2e8ccf" style="stroke-width: 6; stroke-linecap: round; opacity: 1;"></path><g transform="matrix(1, 0, 0, 1, 173, -196)" style="visibility: visible;"><g transform="matrix(1, 0, 0, 1, 124, -164)" style="visibility: visible;"><g transform="matrix(1, 0, 0, 1, 128, -41)" style="visibility: visible;"></g><path d="M64.96000000000004,31.399999999999977 C89.86880000000001,31.399999999999977 102.3232,-10.080000000000013 127.23199999999997,-10.080000000000013 L210,-10.080000000000013" fill="none" stroke="#32a198" style="stroke-width: 3.84; stroke-linecap: round; opacity: 1;"></path><g transform="matrix(1, 0, 0, 1, 128, 0)" style="visibility: visible;"></g><path d="M64.96000000000004,31.399999999999977 C89.86880000000001,31.399999999999977 102.3232,30.920000000000016 127.23199999999997,30.920000000000016 L210,30.920000000000016" fill="none" stroke="#32a198" style="stroke-width: 3.84; stroke-linecap: round; opacity: 1;"></path><g transform="matrix(1, 0, 0, 1, 128, 41)" style="visibility: visible;"></g><path d="M64.96000000000004,31.399999999999977 C89.86880000000001,31.399999999999977 102.3232,71.92000000000002 127.23199999999997,71.92000000000002 L210,71.92000000000002" fill="none" stroke="#32a198" style="stroke-width: 3.84; stroke-linecap: round; opacity: 1;"></path></g><path d="M61.200000000000045,32 C85.936,32 98.304,-132.60000000000002 123.03999999999996,-132.60000000000002 L188,-132.60000000000002" fill="none" stroke="#32a198" style="stroke-width: 4.8; stroke-linecap: round; opacity: 1;"></path><g transform="matrix(1, 0, 0, 1, 124, -41)" style="visibility: visible;"><g transform="matrix(1, 0, 0, 1, 128, -41)" style="visibility: visible;"></g><path d="M64.96000000000004,31.399999999999977 C89.86880000000001,31.399999999999977 102.3232,-10.079999999999984 127.23199999999997,-10.079999999999984 L192,-10.079999999999984" fill="none" stroke="#32a198" style="stroke-width: 3.84; stroke-linecap: round; opacity: 1;"></path><g transform="matrix(1, 0, 0, 1, 128, 0)" style="visibility: visible;"></g><path d="M64.96000000000004,31.399999999999977 C89.86880000000001,31.399999999999977 102.3232,30.920000000000016 127.23199999999997,30.920000000000016 L228,30.920000000000016" fill="none" stroke="#32a198" style="stroke-width: 3.84; stroke-linecap: round; opacity: 1;"></path><g transform="matrix(1, 0, 0, 1, 128, 41)" style="visibility: visible;"></g><path d="M64.96000000000004,31.399999999999977 C89.86880000000001,31.399999999999977 102.3232,71.92000000000002 127.23199999999997,71.92000000000002 L210,71.92000000000002" fill="none" stroke="#32a198" style="stroke-width: 3.84; stroke-linecap: round; opacity: 1;"></path></g><path d="M61.200000000000045,32 C85.936,32 98.304,-9.600000000000023 123.03999999999996,-9.600000000000023 L188,-9.600000000000023" fill="none" stroke="#32a198" style="stroke-width: 4.8; stroke-linecap: round; opacity: 1;"></path><g transform="matrix(1, 0, 0, 1, 124, 61.5)" style="visibility: visible;"><g transform="matrix(1, 0, 0, 1, 164, -20.5)" style="visibility: visible;"></g><path d="M100.96000000000004,31.399999999999977 C125.86880000000001,31.399999999999977 138.32319999999999,10.420000000000016 163.23199999999997,10.420000000000016 L254,10.420000000000016" fill="none" stroke="#32a198" style="stroke-width: 3.84; stroke-linecap: round; opacity: 1;"></path><g transform="matrix(1, 0, 0, 1, 164, 20.5)" style="visibility: visible;"></g><path d="M100.96000000000004,31.399999999999977 C125.86880000000001,31.399999999999977 138.32319999999999,51.41999999999996 163.23199999999997,51.41999999999996 L278,51.41999999999996" fill="none" stroke="#32a198" style="stroke-width: 3.84; stroke-linecap: round; opacity: 1;"></path></g><path d="M61.200000000000045,32 C85.936,32 98.304,92.89999999999998 123.03999999999996,92.89999999999998 L224,92.89999999999998" fill="none" stroke="#32a198" style="stroke-width: 4.8; stroke-linecap: round; opacity: 1;"></path><g transform="matrix(1, 0, 0, 1, 124, 164)" style="visibility: visible;"><g transform="matrix(1, 0, 0, 1, 146, -41)" style="visibility: visible;"></g><path d="M82.96000000000004,31.399999999999977 C107.86880000000001,31.399999999999977 120.3232,-10.080000000000041 145.23199999999997,-10.080000000000041 L262,-10.080000000000041" fill="none" stroke="#32a198" style="stroke-width: 3.84; stroke-linecap: round; opacity: 1;"></path><g transform="matrix(1, 0, 0, 1, 146, 0)" style="visibility: visible;"></g><path d="M82.96000000000004,31.399999999999977 C107.86880000000001,31.399999999999977 120.3232,30.91999999999996 145.23199999999997,30.91999999999996 L390,30.91999999999996" fill="none" stroke="#32a198" style="stroke-width: 3.84; stroke-linecap: round; opacity: 1;"></path><g transform="matrix(1, 0, 0, 1, 146, 41)" style="visibility: visible;"></g><path d="M82.96000000000004,31.399999999999977 C107.86880000000001,31.399999999999977 120.3232,71.91999999999996 145.23199999999997,71.91999999999996 L426,71.91999999999996" fill="none" stroke="#32a198" style="stroke-width: 3.84; stroke-linecap: round; opacity: 1;"></path></g><path d="M61.200000000000045,32 C85.936,32 98.304,195.39999999999998 123.03999999999996,195.39999999999998 L206,195.39999999999998" fill="none" stroke="#32a198" style="stroke-width: 4.8; stroke-linecap: round; opacity: 1;"></path></g><path d="M54.5,23.5 C101.41999999999999,23.5 124.87999999999997,-164 171.79999999999995,-164 L233,-164" fill="none" stroke="#32a198" style="stroke-width: 6; stroke-linecap: round; opacity: 1;"></path><g transform="matrix(1, 0, 0, 1, 173, 91)" style="visibility: visible;"><g transform="matrix(1, 0, 0, 1, 164, -41)" style="visibility: visible;"></g><path d="M101.20000000000005,32 C125.936,32 138.304,-9.600000000000023 163.03999999999996,-9.600000000000023 L224,-9.600000000000023" fill="none" stroke="#85981c" style="stroke-width: 4.8; stroke-linecap: round; opacity: 1;"></path><g transform="matrix(1, 0, 0, 1, 164, 0)" style="visibility: visible;"></g><path d="M101.20000000000005,32 C125.936,32 138.304,31.399999999999977 163.03999999999996,31.399999999999977 L224,31.399999999999977" fill="none" stroke="#85981c" style="stroke-width: 4.8; stroke-linecap: round; opacity: 1;"></path><g transform="matrix(1, 0, 0, 1, 164, 41)" style="visibility: visible;"></g><path d="M101.20000000000005,32 C125.936,32 138.304,72.39999999999998 163.03999999999996,72.39999999999998 L224,72.39999999999998" fill="none" stroke="#85981c" style="stroke-width: 4.8; stroke-linecap: round; opacity: 1;"></path></g><path d="M54.5,23.5 C101.41999999999999,23.5 124.87999999999997,123 171.79999999999995,123 L273,123" fill="none" stroke="#85981c" style="stroke-width: 6; stroke-linecap: round; opacity: 1;"></path><g transform="matrix(1, 0, 0, 1, 173, 296)" style="visibility: visible;"><g transform="matrix(1, 0, 0, 1, 124, -82)" style="visibility: visible;"><g transform="matrix(1, 0, 0, 1, 182, -41)" style="visibility: visible;"></g><path d="M118.96000000000004,31.399999999999977 C143.86880000000002,31.399999999999977 156.32319999999999,-10.080000000000041 181.23199999999997,-10.080000000000041 L264,-10.080000000000041" fill="none" stroke="#b4881d" style="stroke-width: 3.84; stroke-linecap: round; opacity: 1;"></path><g transform="matrix(1, 0, 0, 1, 182, 0)" style="visibility: visible;"></g><path d="M118.96000000000004,31.399999999999977 C143.86880000000002,31.399999999999977 156.32319999999999,30.91999999999996 181.23199999999997,30.91999999999996 L264,30.91999999999996" fill="none" stroke="#b4881d" style="stroke-width: 3.84; stroke-linecap: round; opacity: 1;"></path><g transform="matrix(1, 0, 0, 1, 182, 41)" style="visibility: visible;"></g><path d="M118.96000000000004,31.399999999999977 C143.86880000000002,31.399999999999977 156.32319999999999,71.91999999999996 181.23199999999997,71.91999999999996 L264,71.91999999999996" fill="none" stroke="#b4881d" style="stroke-width: 3.84; stroke-linecap: round; opacity: 1;"></path></g><path d="M61.200000000000045,32 C85.936,32 98.304,-50.60000000000002 123.03999999999996,-50.60000000000002 L242,-50.60000000000002" fill="none" stroke="#b4881d" style="stroke-width: 4.8; stroke-linecap: round; opacity: 1;"></path><g transform="matrix(1, 0, 0, 1, 124, 20.5)" style="visibility: visible;"><g transform="matrix(1, 0, 0, 1, 146, -20.5)" style="visibility: visible;"></g><path d="M82.96000000000004,31.399999999999977 C107.86880000000001,31.399999999999977 120.3232,10.419999999999959 145.23199999999997,10.419999999999959 L228,10.419999999999959" fill="none" stroke="#b4881d" style="stroke-width: 3.84; stroke-linecap: round; opacity: 1;"></path><g transform="matrix(1, 0, 0, 1, 146, 20.5)" style="visibility: visible;"></g><path d="M82.96000000000004,31.399999999999977 C107.86880000000001,31.399999999999977 120.3232,51.41999999999996 145.23199999999997,51.41999999999996 L228,51.41999999999996" fill="none" stroke="#b4881d" style="stroke-width: 3.84; stroke-linecap: round; opacity: 1;"></path></g><path d="M61.200000000000045,32 C85.936,32 98.304,51.89999999999998 123.03999999999996,51.89999999999998 L206,51.89999999999998" fill="none" stroke="#b4881d" style="stroke-width: 4.8; stroke-linecap: round; opacity: 1;"></path><g transform="matrix(1, 0, 0, 1, 124, 82)" style="visibility: visible;"></g><path d="M61.200000000000045,32 C85.936,32 98.304,113.39999999999998 123.03999999999996,113.39999999999998 L206,113.39999999999998" fill="none" stroke="#b4881d" style="stroke-width: 4.8; stroke-linecap: round; opacity: 1;"></path><g transform="matrix(1, 0, 0, 1, 124, 122.99999999999989)" style="visibility: visible;"></g><path d="M61.200000000000045,32 C85.936,32 98.304,154.39999999999998 123.03999999999996,154.39999999999998 L206,154.39999999999998" fill="none" stroke="#b4881d" style="stroke-width: 4.8; stroke-linecap: round; opacity: 1;"></path></g><path d="M54.5,23.5 C101.41999999999999,23.5 124.87999999999997,328 171.79999999999995,328 L233,328" fill="none" stroke="#b4881d" style="stroke-width: 6; stroke-linecap: round; opacity: 1;"></path></g></g></svg>
