<svg xmlns="http://www.w3.org/2000/svg" xmlns:xlink="http://www.w3.org/1999/xlink" viewBox="0 0 26 26" version="1.1">
<g id="surface1">
<path fill="rgb(211, 53, 62)" d="M 8 4 L 8 8 L 15.1875 8 L 17 9.8125 L 17 10.28125 C 16.695313 10.101563 16.351563 10.003906 16 10 L 10 10 C 9.9375 9.996094 9.875 9.996094 9.8125 10 C 9.347656 10.050781 8.917969 10.261719 8.59375 10.59375 L 5.59375 13.59375 C 5.21875 13.964844 5.003906 14.472656 5 15 L 5 17 C 5.003906 17.527344 5.21875 18.035156 5.59375 18.40625 L 8.59375 21.40625 C 8.964844 21.78125 9.472656 21.996094 10 22 L 15 22 C 15.429688 21.996094 15.84375 21.851563 16.1875 21.59375 L 17 21 L 17 22 L 21 22 L 21 17.0625 C 21 17.042969 21 17.019531 21 17 L 21 15 C 21.003906 14.9375 21.003906 14.875 21 14.8125 L 21 9 C 20.996094 8.472656 20.78125 7.964844 20.40625 7.59375 L 17.40625 4.59375 C 17.035156 4.21875 16.527344 4.003906 16 4 Z M 10.8125 14 L 15.1875 14 L 17 15.8125 L 17 16 L 14.34375 18 L 10.8125 18 L 9 16.1875 L 9 15.8125 Z "></path>
</g>
</svg>
